<svg width="195" height="60" viewBox="0 0 195 60" fill="none" xmlns="http://www.w3.org/2000/svg">
<g clip-path="url(#clip0_1_48)">
<path d="M55.16 30.68C54.02 28.71 52.95 26.74 51.9 24.83C49.5 20.44 47.23 16.3 44.47 12.43C41.04 7.63001 35.63 5.10001 29.25 5.30001C28.83 5.31001 28.5 5.66001 28.52 6.08001C28.53 6.50001 28.89 6.83001 29.3 6.81001C35.16 6.63001 40.11 8.93001 43.23 13.31C45.94 17.1 48.19 21.21 50.57 25.55C51.45 27.16 52.35 28.81 53.3 30.47L47.85 31.34C47.48 31.4 47.21 31.72 47.21 32.09V44.77H37.68C37.26 44.77 36.92 45.11 36.92 45.53V53.51C36.92 53.93 37.26 54.27 37.68 54.27C38.1 54.27 38.44 53.93 38.44 53.51V46.29H47.97C48.39 46.29 48.73 45.95 48.73 45.53V32.73L54.62 31.79C54.87 31.75 55.08 31.59 55.19 31.37C55.3 31.15 55.28 30.9 55.16 30.68Z" fill="white"/>
<path d="M37.6 23.69C37.59 23.28 37.25 22.95 36.84 22.95C36.83 22.95 36.83 22.95 36.82 22.95C30.47 23.1 24.03 23.06 17.8 23.03C15.1 23.01 12.32 23 9.56 23C9.48 23 9.41 23 9.34 23.01V19.76C11.09 19.38 12.42 17.71 12.42 15.72C12.42 13.45 10.7 11.6 8.58 11.6C6.46 11.6 4.74 13.45 4.74 15.72C4.74 17.71 6.07 19.38 7.82 19.76V23.58C7.82 23.59 7.82 23.6 7.82 23.62C7.82 23.65 7.82 23.67 7.83 23.7C7.83 23.72 7.84 23.75 7.84 23.77C7.85 23.79 7.85 23.82 7.86 23.84C7.87 23.87 7.88 23.89 7.89 23.92C7.9 23.93 7.9 23.94 7.9 23.95C7.91 23.97 7.92 23.98 7.93 23.99C7.93 24 7.94 24 7.94 24.01C8.33 24.63 9.06 24.56 9.37 24.52C9.43 24.51 9.5 24.51 9.54 24.51C12.3 24.51 15.08 24.52 17.78 24.54C18.27 24.54 18.77 24.55 19.26 24.55V29.58C19.26 29.63 19.27 29.69 19.28 29.74C17.52 30.11 16.19 31.78 16.19 33.78C16.19 36.05 17.91 37.9 20.03 37.9C22.15 37.9 23.87 36.05 23.87 33.78C23.87 31.78 22.53 30.11 20.77 29.74C20.78 29.69 20.79 29.64 20.79 29.58V24.55C22.48 24.56 24.19 24.56 25.9 24.56C29.54 24.56 33.21 24.53 36.85 24.45C37.27 24.45 37.61 24.1 37.6 23.69ZM6.26 15.72C6.26 14.29 7.3 13.12 8.58 13.12C9.86 13.12 10.9 14.29 10.9 15.72C10.9 17.15 9.86 18.32 8.58 18.32C7.3 18.32 6.26 17.16 6.26 15.72ZM22.36 33.78C22.36 35.21 21.32 36.38 20.04 36.38C18.76 36.38 17.72 35.21 17.72 33.78C17.72 32.35 18.76 31.18 20.04 31.18C21.32 31.18 22.36 32.35 22.36 33.78Z" fill="white"/>
<path d="M30.54 42.09C27.35 42.08 24.15 42.07 20.96 42.05L14.8 42.03C14.38 40.24 12.87 38.91 11.07 38.91C8.95 38.91 7.23 40.76 7.23 43.03C7.23 45.3 8.95 47.15 11.07 47.15C13.02 47.15 14.64 45.58 14.88 43.55L20.95 43.57C22.24 43.58 23.53 43.58 24.82 43.59V49.92C23.07 50.3 21.74 51.97 21.74 53.96C21.74 56.23 23.46 58.08 25.58 58.08C27.7 58.08 29.42 56.23 29.42 53.96C29.42 51.97 28.09 50.3 26.34 49.92V43.6C27.74 43.61 29.14 43.61 30.53 43.62C30.95 43.62 31.29 43.28 31.29 42.86C31.3 42.43 30.96 42.09 30.54 42.09ZM11.08 45.63C9.8 45.63 8.76 44.46 8.76 43.03C8.76 41.6 9.8 40.43 11.08 40.43C12.36 40.43 13.4 41.6 13.4 43.03C13.4 44.46 12.36 45.63 11.08 45.63ZM27.91 53.95C27.91 55.38 26.87 56.55 25.59 56.55C24.31 56.55 23.27 55.38 23.27 53.95C23.27 52.52 24.31 51.35 25.59 51.35C26.86 51.35 27.91 52.52 27.91 53.95Z" fill="white"/>
<path d="M19.28 10.09V15.72C19.28 16.14 19.62 16.48 20.04 16.48H29.28C29.7 16.48 30.04 16.14 30.04 15.72C30.04 15.3 29.7 14.96 29.28 14.96H20.8V10.08C22.55 9.70001 23.88 8.03001 23.88 6.04001C23.88 3.77001 22.16 1.92001 20.04 1.92001C17.92 1.92001 16.2 3.77001 16.2 6.04001C16.2 8.04001 17.52 9.71001 19.28 10.09ZM20.03 3.45001C21.31 3.45001 22.35 4.62001 22.35 6.05001C22.35 7.48001 21.31 8.65001 20.03 8.65001C18.75 8.65001 17.71 7.48001 17.71 6.05001C17.71 4.62001 18.75 3.45001 20.03 3.45001Z" fill="white"/>
</g>
<path d="M95.452 44.5H93.226L89.74 35.806H76.51L73.024 44.5H70.798L81.886 16.78H84.364L95.452 44.5ZM77.266 33.874H88.984L83.104 18.838L77.266 33.874ZM109.816 16.78C111.748 16.78 113.414 17.116 114.814 17.788C116.214 18.432 117.292 19.356 118.048 20.56C118.832 21.764 119.224 23.206 119.224 24.886C119.224 26.594 118.832 28.05 118.048 29.254C117.292 30.458 116.214 31.396 114.814 32.068C113.414 32.712 111.748 33.034 109.816 33.034H102.718V44.5H100.618V16.78H109.816ZM109.564 31.06C112 31.06 113.848 30.528 115.108 29.464C116.368 28.372 116.998 26.846 116.998 24.886C116.998 22.926 116.368 21.414 115.108 20.35C113.848 19.258 112 18.712 109.564 18.712H102.718V31.06H109.564ZM151.056 16.78V44.5H149.04V23.836L149.292 18.796H149.25L139.128 44.5H137.196L127.074 18.796H127.032L127.284 23.836V44.5H125.268V16.78H128.418L136.776 37.78L138.162 42.022H138.204L139.548 37.822L147.906 16.78H151.056ZM161.904 16.78V44.5H159.804V16.78H161.904ZM192.556 37.486C192.024 39.026 191.226 40.356 190.162 41.476C189.126 42.596 187.866 43.45 186.382 44.038C184.926 44.626 183.288 44.92 181.468 44.92C178.948 44.92 176.736 44.346 174.832 43.198C172.956 42.022 171.486 40.37 170.422 38.242C169.386 36.114 168.868 33.58 168.868 30.64C168.868 27.7 169.386 25.166 170.422 23.038C171.458 20.91 172.914 19.272 174.79 18.124C176.694 16.948 178.906 16.36 181.426 16.36C183.302 16.36 184.94 16.626 186.34 17.158C187.768 17.662 188.972 18.432 189.952 19.468C190.932 20.476 191.674 21.722 192.178 23.206L190.12 24.172C189.476 22.24 188.454 20.784 187.054 19.804C185.654 18.796 183.82 18.292 181.552 18.292C179.48 18.292 177.646 18.796 176.05 19.804C174.482 20.784 173.25 22.198 172.354 24.046C171.486 25.866 171.052 28.064 171.052 30.64C171.052 33.188 171.486 35.386 172.354 37.234C173.222 39.082 174.44 40.51 176.008 41.518C177.576 42.498 179.396 42.988 181.468 42.988C183.708 42.988 185.612 42.456 187.18 41.392C188.748 40.3 189.84 38.732 190.456 36.688L192.556 37.486Z" fill="white"/>
<defs>
<clipPath id="clip0_1_48">
<rect width="60" height="60" fill="white"/>
</clipPath>
</defs>
</svg>
